HIERARCHY
ROOT Hips
{
    OFFSET 0.000 95.729 0.000
    CHANNELS 6 Xposition Yposition Zposition Yrotation Xrotation Zrotation
    JOINT RightUpLeg
    {
        OFFSET -9.625 -1.639 0.000
        CHANNELS 6 Xposition Yposition Zposition Yrotation Xrotation Zrotation
        JOINT RightLeg
        {
            OFFSET 0.000 -41.481 0.000
            CHANNELS 6 Xposition Yposition Zposition Yrotation Xrotation Zrotation
            JOINT RightFoot
            {
                OFFSET 0.000 -43.120 0.000
                CHANNELS 6 Xposition Yposition Zposition Yrotation Xrotation Zrotation
                End Site
                {
                    OFFSET 0.000 -7.850 17.850
                }
            }
        }
    }
    JOINT LeftUpLeg
    {
        OFFSET 9.625 -1.639 0.000
        CHANNELS 6 Xposition Yposition Zposition Yrotation Xrotation Zrotation
        JOINT LeftLeg
        {
            OFFSET 0.000 -43.120 0.000
            CHANNELS 6 Xposition Yposition Zposition Yrotation Xrotation Zrotation
            JOINT LeftFoot
            {
                OFFSET 0.000 -43.120 0.000
                CHANNELS 6 Xposition Yposition Zposition Yrotation Xrotation Zrotation
                End Site
                {
                    OFFSET 0.000 -7.850 17.850
                }
            }
        }
    }
    JOINT Spine
    {
        OFFSET 0.000 16.395 0.000
        CHANNELS 6 Xposition Yposition Zposition Yrotation Xrotation Zrotation
        JOINT Spine1
        {
            OFFSET 0.000 10.023 0.000
            CHANNELS 6 Xposition Yposition Zposition Yrotation Xrotation Zrotation
            JOINT Spine2
            {
                OFFSET 0.000 10.437 0.000
                CHANNELS 6 Xposition Yposition Zposition Yrotation Xrotation Zrotation
                JOINT Spine3
                {
                    OFFSET 0.000 10.023 0.000
                    CHANNELS 6 Xposition Yposition Zposition Yrotation Xrotation Zrotation
                    JOINT Neck
                    {
                        OFFSET 0.000 10.713 0.000
                        CHANNELS 6 Xposition Yposition Zposition Yrotation Xrotation Zrotation
                        JOINT Head
                        {
                            OFFSET 0.000 9.720 0.000
                            CHANNELS 6 Xposition Yposition Zposition Yrotation Xrotation Zrotation
                            End Site
                            {
                                OFFSET 0.000 16.450 0.000
                            }
                        }
                    }
                    JOINT RightShoulder
                    {
                        OFFSET -3.275 7.142 0.000
                        CHANNELS 6 Xposition Yposition Zposition Yrotation Xrotation Zrotation
                        JOINT RightArm
                        {
                            OFFSET -13.100 0.000 0.000
                            CHANNELS 6 Xposition Yposition Zposition Yrotation Xrotation Zrotation
                            JOINT RightForeArm
                            {
                                OFFSET -27.250 0.000 0.000
                                CHANNELS 6 Xposition Yposition Zposition Yrotation Xrotation Zrotation
                                JOINT RightHand
                                {
                                    OFFSET -26.750 0.000 0.000
                                    CHANNELS 6 Xposition Yposition Zposition Yrotation Xrotation Zrotation
                                    JOINT RightHandThumb1
                                    {
                                        OFFSET -2.560 0.196 3.210
                                        CHANNELS 6 Xposition Yposition Zposition Yrotation Xrotation Zrotation
                                        JOINT RightHandThumb2
                                        {
                                            OFFSET -3.788 0.000 0.000
                                            CHANNELS 6 Xposition Yposition Zposition Yrotation Xrotation Zrotation
                                            JOINT RightHandThumb3
                                            {
                                                OFFSET -2.631 0.000 0.000
                                                CHANNELS 6 Xposition Yposition Zposition Yrotation Xrotation Zrotation
                                                End Site
                                                {
                                                    OFFSET -2.256 0.000 0.000
                                                }
                                            }
                                        }
                                    }
                                    JOINT RightInHandIndex
                                    {
                                        OFFSET -3.316 0.523 2.035
                                        CHANNELS 6 Xposition Yposition Zposition Yrotation Xrotation Zrotation
                                        JOINT RightHandIndex1
                                        {
                                            OFFSET -5.366 -0.094 1.028
                                            CHANNELS 6 Xposition Yposition Zposition Yrotation Xrotation Zrotation
                                            JOINT RightHandIndex2
                                            {
                                                OFFSET -3.723 0.000 0.000
                                                CHANNELS 6 Xposition Yposition Zposition Yrotation Xrotation Zrotation
                                                JOINT RightHandIndex3
                                                {
                                                    OFFSET -2.111 0.000 0.000
                                                    CHANNELS 6 Xposition Yposition Zposition Yrotation Xrotation Zrotation
                                                    End Site
                                                    {
                                                        OFFSET -1.857 0.000 0.000
                                                    }
                                                }
                                            }
                                        }
                                    }
                                    JOINT RightInHandMiddle
                                    {
                                        OFFSET -3.479 0.532 0.778
                                        CHANNELS 6 Xposition Yposition Zposition Yrotation Xrotation Zrotation
                                        JOINT RightHandMiddle1
                                        {
                                            OFFSET -5.322 -0.086 0.323
                                            CHANNELS 6 Xposition Yposition Zposition Yrotation Xrotation Zrotation
                                            JOINT RightHandMiddle2
                                            {
                                                OFFSET -4.062 0.000 0.000
                                                CHANNELS 6 Xposition Yposition Zposition Yrotation Xrotation Zrotation
                                                JOINT RightHandMiddle3
                                                {
                                                    OFFSET -2.547 0.000 0.000
                                                    CHANNELS 6 Xposition Yposition Zposition Yrotation Xrotation Zrotation
                                                    End Site
                                                    {
                                                        OFFSET -2.031 0.000 0.000
                                                    }
                                                }
                                            }
                                        }
                                    }
                                    JOINT RightInHandRing
                                    {
                                        OFFSET -3.461 0.553 -0.133
                                        CHANNELS 6 Xposition Yposition Zposition Yrotation Xrotation Zrotation
                                        JOINT RightHandRing1
                                        {
                                            OFFSET -4.767 -0.023 -0.493
                                            CHANNELS 6 Xposition Yposition Zposition Yrotation Xrotation Zrotation
                                            JOINT RightHandRing2
                                            {
                                                OFFSET -3.541 0.000 0.000
                                                CHANNELS 6 Xposition Yposition Zposition Yrotation Xrotation Zrotation
                                                JOINT RightHandRing3
                                                {
                                                    OFFSET -2.456 0.000 0.000
                                                    CHANNELS 6 Xposition Yposition Zposition Yrotation Xrotation Zrotation
                                                    End Site
                                                    {
                                                        OFFSET -1.910 0.000 0.000
                                                    }
                                                }
                                            }
                                        }
                                    }
                                    JOINT RightInHandPinky
                                    {
                                        OFFSET -3.251 0.483 -1.236
                                        CHANNELS 6 Xposition Yposition Zposition Yrotation Xrotation Zrotation
                                        JOINT RightHandPinky1
                                        {
                                            OFFSET -4.259 -0.023 -1.122
                                            CHANNELS 6 Xposition Yposition Zposition Yrotation Xrotation Zrotation
                                            JOINT RightHandPinky2
                                            {
                                                OFFSET -2.835 0.000 0.000
                                                CHANNELS 6 Xposition Yposition Zposition Yrotation Xrotation Zrotation
                                                JOINT RightHandPinky3
                                                {
                                                    OFFSET -1.792 0.000 0.000
                                                    CHANNELS 6 Xposition Yposition Zposition Yrotation Xrotation Zrotation
                                                    End Site
                                                    {
                                                        OFFSET -1.692 0.000 0.000
                                                    }
                                                }
                                            }
                                        }
                                    }
                                }
                            }
                        }
                    }
                    JOINT LeftShoulder
                    {
                        OFFSET 3.275 7.142 0.000
                        CHANNELS 6 Xposition Yposition Zposition Yrotation Xrotation Zrotation
                        JOINT LeftArm
                        {
                            OFFSET 13.100 0.000 0.000
                            CHANNELS 6 Xposition Yposition Zposition Yrotation Xrotation Zrotation
                            JOINT LeftForeArm
                            {
                                OFFSET 27.250 0.000 0.000
                                CHANNELS 6 Xposition Yposition Zposition Yrotation Xrotation Zrotation
                                JOINT LeftHand
                                {
                                    OFFSET 26.750 0.000 0.000
                                    CHANNELS 6 Xposition Yposition Zposition Yrotation Xrotation Zrotation
                                    JOINT LeftHandThumb1
                                    {
                                        OFFSET 2.560 0.196 3.210
                                        CHANNELS 6 Xposition Yposition Zposition Yrotation Xrotation Zrotation
                                        JOINT LeftHandThumb2
                                        {
                                            OFFSET 3.788 0.000 0.000
                                            CHANNELS 6 Xposition Yposition Zposition Yrotation Xrotation Zrotation
                                            JOINT LeftHandThumb3
                                            {
                                                OFFSET 2.631 0.000 0.000
                                                CHANNELS 6 Xposition Yposition Zposition Yrotation Xrotation Zrotation
                                                End Site
                                                {
                                                    OFFSET 2.256 0.000 0.000
                                                }
                                            }
                                        }
                                    }
                                    JOINT LeftInHandIndex
                                    {
                                        OFFSET 3.316 0.523 2.035
                                        CHANNELS 6 Xposition Yposition Zposition Yrotation Xrotation Zrotation
                                        JOINT LeftHandIndex1
                                        {
                                            OFFSET 5.366 -0.094 1.028
                                            CHANNELS 6 Xposition Yposition Zposition Yrotation Xrotation Zrotation
                                            JOINT LeftHandIndex2
                                            {
                                                OFFSET 3.723 0.000 0.000
                                                CHANNELS 6 Xposition Yposition Zposition Yrotation Xrotation Zrotation
                                                JOINT LeftHandIndex3
                                                {
                                                    OFFSET 2.111 0.000 0.000
                                                    CHANNELS 6 Xposition Yposition Zposition Yrotation Xrotation Zrotation
                                                    End Site
                                                    {
                                                        OFFSET 1.857 0.000 0.000
                                                    }
                                                }
                                            }
                                        }
                                    }
                                    JOINT LeftInHandMiddle
                                    {
                                        OFFSET 3.479 0.532 0.778
                                        CHANNELS 6 Xposition Yposition Zposition Yrotation Xrotation Zrotation
                                        JOINT LeftHandMiddle1
                                        {
                                            OFFSET 5.322 -0.086 0.323
                                            CHANNELS 6 Xposition Yposition Zposition Yrotation Xrotation Zrotation
                                            JOINT LeftHandMiddle2
                                            {
                                                OFFSET 4.062 0.000 0.000
                                                CHANNELS 6 Xposition Yposition Zposition Yrotation Xrotation Zrotation
                                                JOINT LeftHandMiddle3
                                                {
                                                    OFFSET 2.547 0.000 0.000
                                                    CHANNELS 6 Xposition Yposition Zposition Yrotation Xrotation Zrotation
                                                    End Site
                                                    {
                                                        OFFSET 2.031 0.000 0.000
                                                    }
                                                }
                                            }
                                        }
                                    }
                                    JOINT LeftInHandRing
                                    {
                                        OFFSET 3.461 0.553 -0.133
                                        CHANNELS 6 Xposition Yposition Zposition Yrotation Xrotation Zrotation
                                        JOINT LeftHandRing1
                                        {
                                            OFFSET 4.767 -0.023 -0.493
                                            CHANNELS 6 Xposition Yposition Zposition Yrotation Xrotation Zrotation
                                            JOINT LeftHandRing2
                                            {
                                                OFFSET 3.541 0.000 0.000
                                                CHANNELS 6 Xposition Yposition Zposition Yrotation Xrotation Zrotation
                                                JOINT LeftHandRing3
                                                {
                                                    OFFSET 2.456 0.000 0.000
                                                    CHANNELS 6 Xposition Yposition Zposition Yrotation Xrotation Zrotation
                                                    End Site
                                                    {
                                                        OFFSET 1.910 0.000 0.000
                                                    }
                                                }
                                            }
                                        }
                                    }
                                    JOINT LeftInHandPinky
                                    {
                                        OFFSET 3.251 0.483 -1.236
                                        CHANNELS 6 Xposition Yposition Zposition Yrotation Xrotation Zrotation
                                        JOINT LeftHandPinky1
                                        {
                                            OFFSET 4.259 -0.023 -1.122
                                            CHANNELS 6 Xposition Yposition Zposition Yrotation Xrotation Zrotation
                                            JOINT LeftHandPinky2
                                            {
                                                OFFSET 2.835 0.000 0.000
                                                CHANNELS 6 Xposition Yposition Zposition Yrotation Xrotation Zrotation
                                                JOINT LeftHandPinky3
                                                {
                                                    OFFSET 1.792 0.000 0.000
                                                    CHANNELS 6 Xposition Yposition Zposition Yrotation Xrotation Zrotation
                                                    End Site
                                                    {
                                                        OFFSET 1.692 0.000 0.000
                                                    }
                                                }
                                            }
                                        }
                                    }
                                }
                            }
                        }
                    }
                }
            }
        }
    }
}
MOTION

Frames: 2
Frame Time: 0.008
-5.00 97.00 0.63 118.89 -4.12 0.28 -9.62 -1.64 -0.01 4.09 6.72 0.54 0.03 -41.47 0.02 -4.75 -0.41 -1.56 0.03 -43.09 0.04 -4.43 -2.89 2.82 9.63 -1.63 0.00 -4.95 4.56 -1.51 0.00 -43.11 -0.02 3.69 0.20 -0.39 -0.00 -43.11 0.01 0.65 -1.15 -1.16 -0.00 16.39 0.01 1.52 4.65 -0.95 0.01 10.02 -0.00 0.37 1.15 -0.25 0.01 10.44 -0.00 0.61 1.92 -0.41 0.02 10.02 -0.01 -0.05 -0.03 0.10 0.01 10.71 -0.00 -0.05 -0.03 0.10 0.01 9.72 -0.01 -0.95 -0.48 1.85 -3.27 7.15 -0.02 0.05 0.01 -0.21 -13.12 0.01 0.00 19.65 -3.32 87.26 -27.25 0.05 -0.00 1.48 -1.13 2.05 -26.75 0.03 -0.01 5.81 1.04 6.22 -2.56 0.20 3.21 21.86 -0.00 30.00 -3.79 0.00 0.00 -10.00 -0.00 0.00 -2.63 0.00 0.00 -10.00 -0.00 0.00 -3.32 0.52 2.03 0.00 -0.00 0.00 -5.37 -0.09 1.03 2.55 -0.00 20.00 -3.72 0.00 0.00 0.00 -0.00 24.00 -2.11 0.00 0.00 0.00 -0.00 20.00 -3.48 0.53 0.78 0.00 -0.00 0.00 -5.32 -0.09 0.32 0.00 -0.00 20.00 -4.06 0.00 0.00 0.00 -0.00 24.00 -2.55 0.00 0.00 0.00 -0.00 20.00 -3.46 0.55 -0.13 0.00 -0.00 0.00 -4.77 -0.02 -0.49 -3.00 -0.00 20.00 -3.54 0.00 0.00 0.00 -0.00 24.00 -2.46 0.00 0.00 0.00 -0.00 20.00 -3.25 0.48 -1.24 0.00 -0.00 0.00 -4.26 -0.02 -1.12 -8.83 -0.00 20.00 -2.84 0.00 0.00 0.00 -0.00 24.00 -1.79 0.00 0.00 0.00 -0.00 20.00 3.28 7.14 0.00 9.00 -0.41 -10.90 13.09 -0.01 0.00 -38.24 7.27 -71.83 27.26 0.01 -0.02 -4.75 -10.33 -7.43 26.75 0.03 -0.02 -0.57 3.66 1.92 2.56 0.20 3.21 -21.86 -0.00 -30.00 3.79 0.00 0.00 10.00 -0.00 0.00 2.63 0.00 0.00 10.00 -0.00 0.00 3.32 0.52 2.03 0.00 -0.00 0.00 5.37 -0.09 1.03 -2.55 -0.00 -20.00 3.72 0.00 0.00 0.00 -0.00 -24.00 2.11 0.00 0.00 0.00 -0.00 -20.00 3.48 0.53 0.78 0.00 -0.00 0.00 5.32 -0.09 0.32 0.00 -0.00 -20.00 4.06 0.00 0.00 0.00 -0.00 -24.00 2.55 0.00 0.00 0.00 -0.00 -20.00 3.46 0.55 -0.13 0.00 -0.00 0.00 4.77 -0.02 -0.49 3.00 -0.00 -20.00 3.54 0.00 0.00 0.00 -0.00 -24.00 2.46 0.00 0.00 0.00 -0.00 -20.00 3.25 0.48 -1.24 0.00 -0.00 0.00 4.26 -0.02 -1.12 8.83 -0.00 -20.00 2.84 0.00 0.00 0.00 -0.00 -24.00 1.79 0.00 0.00 0.00 -0.00 -20.00 
-5.01 97.00 0.64 118.88 -4.12 0.29 -9.62 -1.63 -0.01 4.07 6.72 0.53 0.02 -41.47 0.02 -4.72 -0.42 -1.55 0.04 -43.09 0.05 -4.42 -2.89 2.82 9.63 -1.64 -0.00 -4.95 4.56 -1.51 0.01 -43.11 -0.01 3.69 0.19 -0.39 -0.00 -43.11 0.02 0.66 -1.15 -1.16 0.00 16.39 0.00 1.52 4.66 -0.96 0.01 10.02 -0.00 0.38 1.16 -0.25 0.02 10.44 -0.01 0.61 1.92 -0.41 0.02 10.02 -0.01 -0.05 -0.03 0.10 0.01 10.71 -0.01 -0.05 -0.03 0.10 0.01 9.72 -0.01 -0.95 -0.48 1.86 -3.27 7.15 -0.02 0.05 0.01 -0.21 -13.12 0.01 0.00 19.65 -3.34 87.27 -27.25 0.04 -0.00 1.49 -1.14 2.06 -26.75 0.03 -0.01 5.81 1.04 6.23 -2.56 0.20 3.21 21.86 -0.00 30.00 -3.79 0.00 0.00 -10.00 -0.00 0.00 -2.63 0.00 0.00 -10.00 -0.00 0.00 -3.32 0.52 2.03 0.00 -0.00 0.00 -5.37 -0.09 1.03 2.55 -0.00 20.00 -3.72 0.00 0.00 0.00 -0.00 24.00 -2.11 0.00 0.00 0.00 -0.00 20.00 -3.48 0.53 0.78 0.00 -0.00 0.00 -5.32 -0.09 0.32 0.00 -0.00 20.00 -4.06 0.00 0.00 0.00 -0.00 24.00 -2.55 0.00 0.00 0.00 -0.00 20.00 -3.46 0.55 -0.13 0.00 -0.00 0.00 -4.77 -0.02 -0.49 -3.00 -0.00 20.00 -3.54 0.00 0.00 0.00 -0.00 24.00 -2.46 0.00 0.00 0.00 -0.00 20.00 -3.25 0.48 -1.24 0.00 -0.00 0.00 -4.26 -0.02 -1.12 -8.83 -0.00 20.00 -2.84 0.00 0.00 0.00 -0.00 24.00 -1.79 0.00 0.00 0.00 -0.00 20.00 3.28 7.14 -0.00 8.99 -0.42 -10.89 13.09 -0.01 -0.00 -38.23 7.26 -71.83 27.26 0.00 -0.02 -4.75 -10.33 -7.43 26.75 0.02 -0.03 -0.57 3.66 1.92 2.56 0.20 3.21 -21.86 -0.00 -30.00 3.79 0.00 0.00 10.00 -0.00 0.00 2.63 0.00 0.00 10.00 -0.00 0.00 3.32 0.52 2.03 0.00 -0.00 0.00 5.37 -0.09 1.03 -2.55 -0.00 -20.00 3.72 0.00 0.00 0.00 -0.00 -24.00 2.11 0.00 0.00 0.00 -0.00 -20.00 3.48 0.53 0.78 0.00 -0.00 0.00 5.32 -0.09 0.32 0.00 -0.00 -20.00 4.06 0.00 0.00 0.00 -0.00 -24.00 2.55 0.00 0.00 0.00 -0.00 -20.00 3.46 0.55 -0.13 0.00 -0.00 0.00 4.77 -0.02 -0.49 3.00 -0.00 -20.00 3.54 0.00 0.00 0.00 -0.00 -24.00 2.46 0.00 0.00 0.00 -0.00 -20.00 3.25 0.48 -1.24 0.00 -0.00 0.00 4.26 -0.02 -1.12 8.83 -0.00 -20.00 2.84 0.00 0.00 0.00 -0.00 -24.00 1.79 0.00 0.00 0.00 -0.00 -20.00 
